<mxfile host="app.diagrams.net" modified="2021-02-18T04:06:43.465Z" agent="5.0 (Windows NT 10.0; Win64; x64) AppleWebKit/537.36 (KHTML, like Gecko) Chrome/88.0.4324.150 Safari/537.36" etag="DYfJ5jcVFnuqEjBHsX5W" version="14.3.2" type="github">
  <diagram name="Page-1" id="9f46799a-70d6-7492-0946-bef42562c5a5">
    <mxGraphModel dx="705" dy="425" grid="1" gridSize="10" guides="1" tooltips="1" connect="1" arrows="1" fold="1" page="1" pageScale="1" pageWidth="1100" pageHeight="850" background="#ffffff" math="0" shadow="0">
      <root>
        <mxCell id="0" />
        <mxCell id="1" parent="0" />
        <mxCell id="78961159f06e98e8-17" value="Thread Pool" style="swimlane;html=1;fontStyle=1;align=center;verticalAlign=top;childLayout=stackLayout;horizontal=1;startSize=26;horizontalStack=0;resizeParent=1;resizeLast=0;collapsible=1;marginBottom=0;swimlaneFillColor=#ffffff;rounded=0;shadow=0;comic=0;labelBackgroundColor=none;strokeWidth=1;fillColor=none;fontFamily=Verdana;fontSize=12" parent="1" vertex="1">
          <mxGeometry x="90" y="83" width="160" height="170" as="geometry" />
        </mxCell>
        <mxCell id="78961159f06e98e8-21" value="Dynamically allocate threads.&lt;br&gt;&lt;br&gt;&lt;b&gt;&quot;int nthreads&quot;&lt;/b&gt; : Number of threads.&lt;br&gt;&lt;br&gt;&lt;b&gt;&quot;worker_func()&quot;&lt;/b&gt; : worker threads loop inside this function." style="text;html=1;strokeColor=none;fillColor=none;align=left;verticalAlign=top;spacingLeft=4;spacingRight=4;whiteSpace=wrap;overflow=hidden;rotatable=0;points=[[0,0.5],[1,0.5]];portConstraint=eastwest;" parent="78961159f06e98e8-17" vertex="1">
          <mxGeometry y="26" width="160" height="144" as="geometry" />
        </mxCell>
        <mxCell id="bvrEzh-9IHcxVxrKS4RD-1" value="Shared Resources" style="swimlane;html=1;fontStyle=1;align=center;verticalAlign=top;childLayout=stackLayout;horizontal=1;startSize=26;horizontalStack=0;resizeParent=1;resizeLast=0;collapsible=1;marginBottom=0;swimlaneFillColor=#ffffff;rounded=0;shadow=0;comic=0;labelBackgroundColor=none;strokeWidth=1;fillColor=none;fontFamily=Verdana;fontSize=12" vertex="1" parent="1">
          <mxGeometry x="310" y="83" width="160" height="170" as="geometry" />
        </mxCell>
        <mxCell id="bvrEzh-9IHcxVxrKS4RD-7" value="" style="endArrow=classic;html=1;entryX=0;entryY=0.103;entryDx=0;entryDy=0;entryPerimeter=0;" edge="1" parent="bvrEzh-9IHcxVxrKS4RD-1" target="bvrEzh-9IHcxVxrKS4RD-5">
          <mxGeometry width="50" height="50" relative="1" as="geometry">
            <mxPoint x="130" y="42" as="sourcePoint" />
            <mxPoint x="180" y="-8" as="targetPoint" />
          </mxGeometry>
        </mxCell>
        <mxCell id="bvrEzh-9IHcxVxrKS4RD-2" value="&lt;b&gt;&quot;steque_t steque&quot; &lt;/b&gt;: Requests enqueued in this storage.&lt;br&gt;&lt;b&gt;&quot;int num&quot;&lt;/b&gt; : Number of threads.&lt;br&gt;&lt;b&gt;&quot;int cnt&quot;&lt;/b&gt; : Index of current thread.&lt;br&gt;&lt;b&gt;&quot;int *waiting&quot;&lt;/b&gt; : The status of current worker thread.&lt;br&gt;" style="text;html=1;strokeColor=none;fillColor=none;align=left;verticalAlign=top;spacingLeft=4;spacingRight=4;whiteSpace=wrap;overflow=hidden;rotatable=0;points=[[0,0.5],[1,0.5]];portConstraint=eastwest;" vertex="1" parent="bvrEzh-9IHcxVxrKS4RD-1">
          <mxGeometry y="26" width="160" height="144" as="geometry" />
        </mxCell>
        <mxCell id="bvrEzh-9IHcxVxrKS4RD-3" value="Mutex and &lt;br&gt;Condition Variable" style="swimlane;html=1;fontStyle=1;align=center;verticalAlign=top;childLayout=stackLayout;horizontal=1;startSize=40;horizontalStack=0;resizeParent=1;resizeLast=0;collapsible=1;marginBottom=0;swimlaneFillColor=#ffffff;rounded=0;shadow=0;comic=0;labelBackgroundColor=none;strokeWidth=1;fillColor=none;fontFamily=Verdana;fontSize=12" vertex="1" parent="1">
          <mxGeometry x="300" y="270" width="180" height="80" as="geometry" />
        </mxCell>
        <mxCell id="bvrEzh-9IHcxVxrKS4RD-4" value="&lt;b&gt;mutex m_sync&lt;br&gt;condition variable *my_cond&lt;br&gt;&lt;/b&gt;" style="text;html=1;strokeColor=none;fillColor=none;align=left;verticalAlign=top;spacingLeft=4;spacingRight=4;whiteSpace=wrap;overflow=hidden;rotatable=0;points=[[0,0.5],[1,0.5]];portConstraint=eastwest;" vertex="1" parent="bvrEzh-9IHcxVxrKS4RD-3">
          <mxGeometry y="40" width="180" height="40" as="geometry" />
        </mxCell>
        <mxCell id="bvrEzh-9IHcxVxrKS4RD-5" value="Structure - req_info" style="swimlane;html=1;fontStyle=1;align=center;verticalAlign=top;childLayout=stackLayout;horizontal=1;startSize=26;horizontalStack=0;resizeParent=1;resizeLast=0;collapsible=1;marginBottom=0;swimlaneFillColor=#ffffff;rounded=0;shadow=0;comic=0;labelBackgroundColor=none;strokeWidth=1;fillColor=none;fontFamily=Verdana;fontSize=12" vertex="1" parent="1">
          <mxGeometry x="530" y="111" width="160" height="140" as="geometry" />
        </mxCell>
        <mxCell id="bvrEzh-9IHcxVxrKS4RD-6" value="&lt;b&gt;&quot;int id&quot;&lt;/b&gt; : Thread id.&lt;br&gt;&lt;b&gt;&quot;gfcontext_t *ctx&quot;&lt;/b&gt;&amp;nbsp;: Context information used when sending header and data file to client.&lt;br&gt;&lt;b&gt;&quot;const char *path&quot;&lt;/b&gt; : file path in server side" style="text;html=1;strokeColor=none;fillColor=none;align=left;verticalAlign=top;spacingLeft=4;spacingRight=4;whiteSpace=wrap;overflow=hidden;rotatable=0;points=[[0,0.5],[1,0.5]];portConstraint=eastwest;" vertex="1" parent="bvrEzh-9IHcxVxrKS4RD-5">
          <mxGeometry y="26" width="160" height="114" as="geometry" />
        </mxCell>
        <mxCell id="bvrEzh-9IHcxVxrKS4RD-8" value="" style="endArrow=classic;html=1;exitX=0.002;exitY=0.772;exitDx=0;exitDy=0;exitPerimeter=0;" edge="1" parent="1" source="78961159f06e98e8-21">
          <mxGeometry width="50" height="50" relative="1" as="geometry">
            <mxPoint x="50" y="345" as="sourcePoint" />
            <mxPoint x="60" y="400" as="targetPoint" />
            <Array as="points">
              <mxPoint x="60" y="220" />
            </Array>
          </mxGeometry>
        </mxCell>
        <mxCell id="bvrEzh-9IHcxVxrKS4RD-9" value="Thread Wait" style="swimlane;html=1;fontStyle=1;align=center;verticalAlign=top;childLayout=stackLayout;horizontal=1;startSize=26;horizontalStack=0;resizeParent=1;resizeLast=0;collapsible=1;marginBottom=0;swimlaneFillColor=#ffffff;rounded=0;shadow=0;comic=0;labelBackgroundColor=none;strokeWidth=1;fillColor=none;fontFamily=Verdana;fontSize=12" vertex="1" parent="1">
          <mxGeometry x="80" y="473" width="160" height="70" as="geometry" />
        </mxCell>
        <mxCell id="bvrEzh-9IHcxVxrKS4RD-10" value="- Wait if there is no request in storage (steque)." style="text;html=1;strokeColor=none;fillColor=none;align=left;verticalAlign=top;spacingLeft=4;spacingRight=4;whiteSpace=wrap;overflow=hidden;rotatable=0;points=[[0,0.5],[1,0.5]];portConstraint=eastwest;" vertex="1" parent="bvrEzh-9IHcxVxrKS4RD-9">
          <mxGeometry y="26" width="160" height="44" as="geometry" />
        </mxCell>
        <mxCell id="bvrEzh-9IHcxVxrKS4RD-11" value="Send" style="swimlane;html=1;fontStyle=1;align=center;verticalAlign=top;childLayout=stackLayout;horizontal=1;startSize=26;horizontalStack=0;resizeParent=1;resizeLast=0;collapsible=1;marginBottom=0;swimlaneFillColor=#ffffff;rounded=0;shadow=0;comic=0;labelBackgroundColor=none;strokeWidth=1;fillColor=none;fontFamily=Verdana;fontSize=12" vertex="1" parent="1">
          <mxGeometry x="300" y="473" width="160" height="180" as="geometry" />
        </mxCell>
        <mxCell id="bvrEzh-9IHcxVxrKS4RD-12" value="- Pop a request from &#39;steque&#39;.&lt;br&gt;&lt;br&gt;- Send header to the client using &#39;gfs_sendheader()&#39; function.&lt;br&gt;&lt;br&gt;- Read from file and send the file contents to client using &#39;gfs_send()&#39; function.&lt;br&gt;&lt;br&gt;&amp;nbsp;" style="text;html=1;strokeColor=none;fillColor=none;align=left;verticalAlign=top;spacingLeft=4;spacingRight=4;whiteSpace=wrap;overflow=hidden;rotatable=0;points=[[0,0.5],[1,0.5]];portConstraint=eastwest;" vertex="1" parent="bvrEzh-9IHcxVxrKS4RD-11">
          <mxGeometry y="26" width="160" height="154" as="geometry" />
        </mxCell>
        <mxCell id="bvrEzh-9IHcxVxrKS4RD-13" value="" style="endArrow=classic;html=1;entryX=-0.01;entryY=0.105;entryDx=0;entryDy=0;entryPerimeter=0;" edge="1" parent="1" target="bvrEzh-9IHcxVxrKS4RD-11">
          <mxGeometry width="50" height="50" relative="1" as="geometry">
            <mxPoint x="240" y="493" as="sourcePoint" />
            <mxPoint x="290" y="443" as="targetPoint" />
          </mxGeometry>
        </mxCell>
        <mxCell id="bvrEzh-9IHcxVxrKS4RD-14" value="" style="endArrow=classic;html=1;entryX=0;entryY=0.25;entryDx=0;entryDy=0;" edge="1" parent="1" target="bvrEzh-9IHcxVxrKS4RD-9">
          <mxGeometry width="50" height="50" relative="1" as="geometry">
            <mxPoint x="463" y="491" as="sourcePoint" />
            <mxPoint x="70" y="513" as="targetPoint" />
            <Array as="points">
              <mxPoint x="490" y="491" />
              <mxPoint x="490" y="440" />
              <mxPoint x="60" y="440" />
              <mxPoint x="60" y="491" />
            </Array>
          </mxGeometry>
        </mxCell>
        <mxCell id="bvrEzh-9IHcxVxrKS4RD-15" value="Worker_func()" style="text;html=1;strokeColor=none;fillColor=none;align=center;verticalAlign=middle;whiteSpace=wrap;rounded=0;fontSize=15;fontStyle=1" vertex="1" parent="1">
          <mxGeometry x="54" y="400" width="40" height="20" as="geometry" />
        </mxCell>
        <mxCell id="bvrEzh-9IHcxVxrKS4RD-17" value="" style="endArrow=none;html=1;fontSize=15;" edge="1" parent="1">
          <mxGeometry width="50" height="50" relative="1" as="geometry">
            <mxPoint x="190" y="420" as="sourcePoint" />
            <mxPoint x="190" y="420" as="targetPoint" />
            <Array as="points">
              <mxPoint x="510" y="420" />
              <mxPoint x="510" y="690" />
              <mxPoint x="30" y="690" />
              <mxPoint x="30" y="420" />
            </Array>
          </mxGeometry>
        </mxCell>
        <mxCell id="bvrEzh-9IHcxVxrKS4RD-18" value="Handler Function" style="swimlane;html=1;fontStyle=1;align=center;verticalAlign=top;childLayout=stackLayout;horizontal=1;startSize=26;horizontalStack=0;resizeParent=1;resizeLast=0;collapsible=1;marginBottom=0;swimlaneFillColor=#ffffff;rounded=0;shadow=0;comic=0;labelBackgroundColor=none;strokeWidth=1;fillColor=none;fontFamily=Verdana;fontSize=12" vertex="1" parent="1">
          <mxGeometry x="550" y="473" width="160" height="140" as="geometry" />
        </mxCell>
        <mxCell id="bvrEzh-9IHcxVxrKS4RD-19" value="- Make structure &#39;req_info&#39;.&lt;br&gt;&lt;br&gt;- Enqueue the request into &#39;steque&#39;.&lt;br&gt;&lt;br&gt;- Signal to waiting worker thread to start working.&amp;nbsp;" style="text;html=1;strokeColor=none;fillColor=none;align=left;verticalAlign=top;spacingLeft=4;spacingRight=4;whiteSpace=wrap;overflow=hidden;rotatable=0;points=[[0,0.5],[1,0.5]];portConstraint=eastwest;" vertex="1" parent="bvrEzh-9IHcxVxrKS4RD-18">
          <mxGeometry y="26" width="160" height="114" as="geometry" />
        </mxCell>
        <mxCell id="bvrEzh-9IHcxVxrKS4RD-20" value="" style="endArrow=classic;html=1;fontSize=15;exitX=-0.003;exitY=0.798;exitDx=0;exitDy=0;exitPerimeter=0;entryX=0.442;entryY=1.028;entryDx=0;entryDy=0;entryPerimeter=0;" edge="1" parent="1" source="bvrEzh-9IHcxVxrKS4RD-19" target="bvrEzh-9IHcxVxrKS4RD-10">
          <mxGeometry width="50" height="50" relative="1" as="geometry">
            <mxPoint x="570" y="720" as="sourcePoint" />
            <mxPoint x="130" y="660" as="targetPoint" />
            <Array as="points">
              <mxPoint x="490" y="590" />
              <mxPoint x="490" y="670" />
              <mxPoint x="151" y="670" />
            </Array>
          </mxGeometry>
        </mxCell>
        <mxCell id="bvrEzh-9IHcxVxrKS4RD-21" value="signal" style="text;html=1;strokeColor=none;fillColor=none;align=center;verticalAlign=middle;whiteSpace=wrap;rounded=0;fontSize=15;fontStyle=1" vertex="1" parent="1">
          <mxGeometry x="499" y="570" width="40" height="20" as="geometry" />
        </mxCell>
      </root>
    </mxGraphModel>
  </diagram>
</mxfile>
